<?xml version="1.0" encoding="utf-8"?>
<!-- Generator: Adobe Illustrator 16.0.0, SVG Export Plug-In . SVG Version: 6.00 Build 0)  -->
<!DOCTYPE svg PUBLIC "-//W3C//DTD SVG 1.1//EN" "http://www.w3.org/Graphics/SVG/1.1/DTD/svg11.dtd">
<svg version="1.1" id="Layer_2" xmlns="http://www.w3.org/2000/svg" xmlns:xlink="http://www.w3.org/1999/xlink" x="0px" y="0px"
	 width="216px" height="104.4px" viewBox="0 0 216 104.4" enable-background="new 0 0 216 104.4" xml:space="preserve">
<g>
	<path fill="#2B2B2B" stroke="#2B2B2B" stroke-miterlimit="10" d="M208.041,55.883c-7.892-1.981-16.334-3.407-24.277-2.33
		c-0.619,0.084-1.223,0.194-1.812,0.326c-0.135-2.383-0.323-4.765-0.593-7.145c-1.17-10.318-3.761-21.684-11.69-29.013
		c-2.448-2.263-6.119,1.391-3.663,3.663c7.423,6.86,9.433,17.833,10.399,27.448c0.225,2.25,0.378,4.503,0.482,6.757
		c-1.396,0.62-2.763,1.33-4.146,2.083c-2.294-1.907-4.944-3.331-7.89-4.025c-1.233-0.292-2.561-0.515-3.912-0.629
		c-0.023-0.426-0.045-0.849-0.064-1.268c-0.346-7.158,0.079-14.366-0.808-21.493c-0.3-2.412-3.396-3.716-4.826-1.307
		c-3.424,5.773-6.146,11.959-10.268,17.234c-0.227-1.356-0.468-2.709-0.754-4.055c-0.87-4.098-2.191-9.264-5.843-11.803
		c-2.664-1.854-6.438-2.021-9.272-0.502c-4.597,2.461-5.992,8.736-6.67,14.138c-0.314-1.339-0.764-2.662-1.395-3.961
		c-0.622-1.28-2.39-1.588-3.543-0.93c-4.522,2.58-5.709,8.544-6.709,13.222c-1.098,5.131-2.626,10.297-4.5,15.199
		c-0.906,2.372-2.117,4.879-4.214,6.411c-0.639,0.469-1.109,0.854-1.407,0.411c-0.672-0.993-0.743-2.413-0.81-3.567
		c-0.367-6.356,3.193-12.042,6.075-17.429c2.85-5.322,5.782-11.212,5.031-17.428c-0.515-4.272-3.466-7.425-7.938-7.129
		c-4.335,0.287-8.385,3.138-11.252,6.224c-2.941,3.166-3.947,6.896-4.436,10.89c-0.493-2.312-0.92-4.635-1.166-6.985
		c-0.352-3.363-4.76-3.296-5.179,0c-0.468,3.671-1.869,7.323-3.887,10.597c-0.58-2.597-1.327-5.155-2.267-7.645
		c-1.153-3.058-2.582-6.228-5.542-7.91c-2.756-1.566-6.161-0.529-8.276,1.567c-2.162,2.141-2.861,5.44-3.761,8.228
		c-0.2,0.62-0.394,1.24-0.583,1.862c-0.323-2.657-1.23-5.194-3.701-6.322c-5.187-2.367-9.818,2.917-12.631,6.521
		c-1.602,2.051-3.056,4.239-4.863,6.119c-0.558,0.581-1.137,1.146-1.724,1.703c-2.154-5.632-5.96-10.229-9.092-15.237
		c-3.242-5.184-5.175-7.314-8.589-11.913c-1.382-1.862-2.72-4.792-1.381-8.978c0.76-2.381,4.665-3.83,6.993-4.23
		c2.288-0.393,7.389,0.394,9.5,2.897c3.016,3.578-1.058,10.701-2.854,12.729c-2.206,2.49,1.492,6.95,3.711,4.445
		c3.844-4.339,6.293-9.959,5.957-16.185c-0.269-4.973-3.758-7.732-8.395-9.409c-7.124-2.576-14.111-1.269-18.49,1.971
		c-2.334,1.726-5.344,3.889-5.456,9.093c-0.139,6.445,2.674,8.913,4.544,11.466c6.551,8.947,14.705,16.955,18.3,27.625
		c-1.199,1.017-1.349,1.478-2.533,2.487c-5.433,4.634-11.343,9.07-16.067,14.456c-2.763,3.148-6.404,7.128-7.125,11.326
		c-2.033,11.866,10.877,14.202,22.143,10.489c10.071-3.319,14.244-11.137,12.713-24.759c-0.493-4.387-0.869-8.753-2.099-12.984
		c3.453-3.083,6.082-6.392,8.914-10.02c0.689-0.883,5.668-7.14,6.719-4.265c1.106,3.029,0.484,7.077,0.576,10.241
		c0.031,1.069,0.044,2.141,0.052,3.21c-0.546-0.4-1.083-0.84-1.606-1.324c-2.449-2.263-6.122,1.392-3.663,3.662
		c1.65,1.525,3.409,2.746,5.237,3.666c-0.047,3.116-0.119,6.235-0.125,9.351c-0.007,3.374,4.94,3.294,5.179,0
		c0.183-2.508,0.441-5.004,0.764-7.489c4.827,0.725,9.849-0.469,14.483-3.642c0.524-0.357,1.034-0.736,1.535-1.129
		c0.6,7.056,0.488,14.165,0.484,21.237c-0.001,3.341,5.177,3.341,5.18,0c0.004-8.614,0.043-17.212-0.976-25.768
		c1.782-2.106,3.308-4.442,4.545-6.917c0.732,3.465,1.514,6.919,2.107,10.413c1.34,7.887,1.212,16.056,2.266,24
		c0.425,3.209,5.103,3.442,5.179,0c0.169-7.591-0.327-15.174-0.47-22.76c-0.07-3.696-0.021-7.39,0.206-11.079
		c0.185-2.994,0.195-6.532,1.611-9.245c1.672-3.205,5.582-6.645,9.291-7.101c4.994-0.615,2.373,7.976,1.521,10.319
		c-2.237,6.143-6.221,11.501-8.483,17.657c-1.657,4.51-2.472,11.162,0.385,15.387c3.403,5.032,9.262,1.02,11.894-2.544
		c3.297-4.465,4.539-10.542,6.075-15.769c0.761-2.583,1.302-5.18,1.919-7.802c0.334-1.415,0.71-3.208,1.408-4.757
		c0.507,3.011,0.263,6.22,0.148,9.188c-0.018,0.434-0.032,0.867-0.049,1.302c-2.392,0.02-3.15,4.104-0.421,5.184
		c0.127,0.05,0.254,0.094,0.381,0.141c0.08,2.249,0.33,4.484,0.919,6.683c0.546,2.04,2.866,2.317,4.328,1.144
		c1.678-1.347,2.19-3.889,2.545-5.888c0.042-0.242,0.08-0.487,0.118-0.731c5.721-0.351,11.031-3.229,15.892-6.835
		c1.721,7.303,2.537,14.83,2.577,22.328c0.019,3.339,5.197,3.339,5.179,0c-0.043-8.145-1.083-16.228-2.854-24.17
		c-0.145-0.649-0.275-1.301-0.401-1.954c3.889-3.907,6.667-8.679,9.316-13.528c0.07,4.593-0.033,9.311,0.206,13.938
		c-0.712,0.136-1.404,0.323-2.065,0.567c-3.869,1.43-4.864,5.114-2.787,8.556c2.023,3.353,4.021,3.974,6.874,4.374
		c1.017,2.691,1.812,6.163,1.812,9.195c0,3.106,4.622,2.902,4.92-0.39c0.131-1.424-0.069-6.725-0.739-8.263
		c2.735-0.652,5.519-1.886,8.119-3.216c3.208,3.703,5.038,8.607,5.233,13.478c-0.004,0.701-0.007,1.4-0.008,2.102
		c-0.004,3.364,4.984,3.308,5.18,0c0.047-0.809,0.046-1.628,0.008-2.453c0.035-6.002,0.144-12.001-0.008-17.992
		c7.237-1.992,16.301-2.954,22.487,0.936C211.517,64.443,214.625,57.538,208.041,55.883z M28.908,86.08
		c-3.515,4.062-9.291,5.075-14.385,5.124c-2.236,0.021-5.598-0.423-5.691-3.21c-0.096-2.847,1.919-5.75,3.493-7.951
		c2.48-3.468,5.968-6.245,9.145-9.031c3.189-2.797,6.445-5.516,9.666-8.275c0.376,1.547,0.695,3.107,0.943,4.681
		C33.02,73.39,33.094,81.239,28.908,86.08z M69.976,57.442c-3.685,2.804-7.723,3.966-11.623,3.393
		c0.65-3.762,1.475-7.496,2.504-11.192c0.6-2.156,3.091-14.593,7.089-10.179c1.724,1.904,2.483,5.242,3.198,7.612
		c0.77,2.554,1.314,5.175,1.722,7.815C71.95,55.816,70.983,56.673,69.976,57.442z M126.331,58.14
		c0.102-1.221,0.19-2.442,0.284-3.661c0.468-6.026,0.393-13.519,3.717-18.811c1.114-1.772,2.516-2.008,4.664-1.324
		c2.982,0.95,3.831,7.283,4.356,9.76c0.482,2.271,0.79,4.58,1.149,6.878C136.457,54.644,131.547,57.601,126.331,58.14z
		 M154.821,58.932c0.058-0.036,0.176-0.135,0.421-0.261c0.244-0.125,0.532-0.202,0.828-0.264c0.122,0.97,0.269,1.932,0.444,2.884
		C155.719,60.607,154.993,59.721,154.821,58.932z M161.38,58.279c2.217,0.275,4.325,0.995,6.274,2.222
		c-1.742,0.92-3.654,1.779-5.518,2.124C161.806,61.196,161.56,59.739,161.38,58.279z M177.073,62.411
		c-0.207-0.295-0.42-0.583-0.638-0.869c0.143-0.077,0.287-0.156,0.426-0.233c0.064-0.034,0.13-0.066,0.194-0.102
		C177.062,61.608,177.069,62.009,177.073,62.411z"/>
</g>
</svg>
